<?xml version="1.0" standalone="no"?>
<!DOCTYPE svg PUBLIC "-//W3C//DTD SVG 20010904//EN"
 "http://www.w3.org/TR/2001/REC-SVG-20010904/DTD/svg10.dtd">
<svg version="1.0" xmlns="http://www.w3.org/2000/svg"
 width="225.000000pt" height="225.000000pt" viewBox="0 0 225.000000 225.000000"
 preserveAspectRatio="xMidYMid meet">

<g transform="translate(0.000000,225.000000) scale(0.100000,-0.100000)"
fill="#000000" stroke="none">
<path d="M913 1903 c-7 -2 -46 -68 -87 -146 -40 -78 -107 -207 -149 -287 l-76
-145 181 5 180 5 80 152 79 153 -61 117 c-34 65 -68 126 -77 135 -15 17 -44
22 -70 11z"/>
<path d="M1740 1100 c0 -5 5 -10 11 -10 5 0 7 5 4 10 -3 6 -8 10 -11 10 -2 0
-4 -4 -4 -10z"/>
<path d="M1687 1093 c-4 -3 -7 -11 -7 -17 0 -6 5 -5 12 2 6 6 9 14 7 17 -3 3
-9 2 -12 -2z"/>
<path d="M832 1055 c-14 -23 -17 -35 -9 -35 12 0 41 59 33 67 -2 2 -13 -12
-24 -32z"/>
<path d="M1750 1051 c8 -5 17 -8 21 -5 4 2 10 -4 13 -13 4 -15 5 -15 3 1 -1
12 -11 20 -27 23 -18 2 -21 1 -10 -6z"/>
<path d="M913 1023 c26 -2 67 -2 90 0 23 2 2 3 -48 3 -49 0 -68 -1 -42 -3z"/>
<path d="M1468 1023 c7 -3 16 -2 19 1 4 3 -2 6 -13 5 -11 0 -14 -3 -6 -6z"/>
<path d="M1643 1023 c26 -2 67 -2 90 0 23 2 2 3 -48 3 -49 0 -68 -1 -42 -3z"/>
<path d="M957 784 c-4 -4 -7 -99 -7 -211 l0 -203 35 0 35 0 -2 208 -3 207 -25
3 c-14 2 -29 0 -33 -4z"/>
<path d="M610 663 c-24 -65 -56 -151 -72 -191 -37 -95 -36 -102 7 -102 32 0
37 4 51 40 l16 40 88 0 87 0 16 -40 c14 -36 19 -40 51 -40 20 0 36 3 36 8 0 4
-32 96 -71 205 l-72 197 -48 0 -47 0 -42 -117z m123 -50 c15 -43 27 -81 27
-85 0 -5 -27 -8 -60 -8 -37 0 -60 4 -60 11 0 18 52 159 59 159 3 0 19 -35 34
-77z"/>
<path d="M1163 665 c-30 -13 -53 -41 -53 -64 0 -18 50 -12 77 9 33 25 65 25
88 0 19 -21 14 -50 -9 -50 -43 0 -120 -25 -146 -47 -40 -33 -40 -74 -1 -114
34 -34 92 -39 141 -14 27 14 30 14 30 0 0 -11 10 -15 35 -15 l35 0 0 121 c0
66 -5 129 -10 140 -25 45 -121 63 -187 34z m123 -182 c-8 -35 -41 -63 -71 -63
-27 0 -55 24 -55 46 0 19 55 43 99 44 31 0 33 -2 27 -27z"/>
<path d="M1462 672 c-9 -3 -12 -45 -12 -153 l0 -149 34 0 34 0 4 106 c3 97 6
108 27 125 30 25 63 24 87 -2 15 -17 19 -40 22 -125 l4 -104 34 0 34 0 0 121
0 121 -35 35 c-33 33 -39 35 -85 31 -28 -3 -59 -13 -70 -23 -17 -15 -20 -16
-20 -3 0 16 -35 28 -58 20z"/>
</g>
</svg>
