<?xml version="1.0" standalone="no"?>
<!DOCTYPE svg PUBLIC "-//W3C//DTD SVG 20010904//EN"
 "http://www.w3.org/TR/2001/REC-SVG-20010904/DTD/svg10.dtd">
<svg version="1.0" xmlns="http://www.w3.org/2000/svg"
 width="225.000000pt" height="225.000000pt" viewBox="0 0 225.000000 225.000000"
 preserveAspectRatio="xMidYMid meet">

<g transform="translate(0.000000,225.000000) scale(0.100000,-0.100000)"
fill="#000000" stroke="none">
<path d="M965 2220 c-413 -65 -758 -354 -889 -745 -81 -242 -72 -522 25 -763
212 -531 815 -812 1364 -635 431 138 733 526 761 979 25 394 -165 775 -494
991 -178 117 -354 172 -572 178 -74 2 -162 0 -195 -5z m358 -304 c234 -60 426
-215 533 -431 65 -132 79 -195 79 -360 0 -165 -13 -226 -79 -360 -81 -164
-206 -289 -371 -370 -135 -67 -194 -80 -365 -80 -124 0 -156 3 -220 23 -237
75 -412 226 -515 445 -51 107 -67 178 -72 318 -4 106 -2 139 16 210 79 315
315 545 631 615 98 21 255 17 363 -10z"/>
<path d="M765 1615 c-51 -18 -120 -91 -134 -141 -33 -120 24 -242 134 -284 48
-19 137 -15 181 8 81 42 126 114 126 203 0 163 -152 269 -307 214z"/>
<path d="M1322 1617 c-184 -67 -201 -333 -26 -417 210 -102 420 135 290 328
-56 84 -170 123 -264 89z"/>
<path d="M754 1057 c-115 -55 -164 -184 -113 -297 35 -78 90 -120 175 -134
114 -19 232 68 254 187 33 176 -154 321 -316 244z"/>
<path d="M1326 1066 c-140 -52 -195 -205 -120 -333 73 -125 253 -146 354 -41
103 106 81 280 -45 353 -55 33 -134 41 -189 21z"/>
</g>
</svg>
