<?xml version="1.0" standalone="no"?>
<!DOCTYPE svg PUBLIC "-//W3C//DTD SVG 20010904//EN"
 "http://www.w3.org/TR/2001/REC-SVG-20010904/DTD/svg10.dtd">
<svg version="1.0" xmlns="http://www.w3.org/2000/svg"
 width="1200.000000pt" height="1200.000000pt" viewBox="0 0 1200.000000 1200.000000"
 preserveAspectRatio="xMidYMid meet">

<g transform="translate(0.000000,1200.000000) scale(0.100000,-0.100000)"
fill="#000000" stroke="none">
<path d="M5655 10669 c-117 -9 -466 -57 -474 -64 -2 -3 9 -5 25 -5 46 0 377
-56 531 -90 867 -192 1563 -549 2082 -1070 522 -524 836 -1189 927 -1960 21
-175 24 -579 6 -750 -160 -1506 -1108 -2719 -2342 -2994 -133 -29 -332 -55
-440 -57 l-75 -2 71 -7 c252 -27 744 -19 1069 16 737 80 1336 267 1855 579
393 237 762 603 987 977 350 584 507 1265 490 2123 l-5 280 -60 145 c-238 579
-575 1083 -1022 1530 -386 387 -774 663 -1265 901 -531 257 -1072 402 -1674
449 -156 12 -525 11 -686 -1z"/>
<path d="M4208 10321 c-136 -55 -381 -177 -525 -260 -611 -352 -1143 -846
-1532 -1421 -389 -575 -638 -1200 -745 -1870 -53 -330 -70 -769 -42 -1092 24
-278 23 -276 63 -103 68 304 175 652 284 923 73 181 243 524 341 685 454 751
1098 1279 1870 1538 557 186 1205 219 1813 94 694 -143 1337 -489 1805 -971
214 -221 364 -427 490 -674 191 -377 278 -732 281 -1150 l1 -155 18 105 c59
350 83 804 60 1165 -84 1350 -653 2302 -1675 2805 -590 290 -1252 420 -2135
420 l-275 0 -97 -39z"/>
<path d="M4745 8389 c-646 -53 -1204 -231 -1652 -528 -282 -186 -491 -384
-698 -659 -390 -517 -628 -1215 -710 -2077 -21 -220 -37 -706 -26 -775 15 -91
149 -384 289 -630 460 -813 1192 -1498 2022 -1893 579 -275 1107 -411 1780
-458 168 -12 572 -6 640 9 l35 8 -39 8 c-21 4 -116 29 -210 56 -902 257 -1610
653 -2136 1197 -508 524 -806 1141 -906 1878 -22 159 -25 624 -6 780 107 868
467 1620 1044 2181 423 412 902 663 1448 761 131 24 170 26 412 27 146 1 266
2 265 3 -6 5 -286 55 -408 72 -334 47 -843 65 -1144 40z"/>
<path d="M5840 7315 c-635 -101 -1100 -644 -1100 -1285 0 -213 41 -388 136
-578 75 -150 137 -237 254 -352 190 -187 432 -311 699 -355 149 -25 377 -17
521 20 491 123 858 505 966 1005 23 107 26 389 5 495 -123 626 -662 1069
-1291 1064 -58 -1 -143 -7 -190 -14z"/>
<path d="M10628 6410 c-4 -8 -28 -89 -53 -180 -198 -693 -501 -1303 -891
-1790 -130 -163 -398 -433 -549 -554 -799 -638 -1793 -869 -2822 -655 -552
114 -1093 367 -1528 713 -122 98 -407 380 -499 496 -270 339 -468 754 -545
1140 -38 197 -46 281 -46 520 0 213 -1 229 -12 170 -23 -123 -52 -325 -68
-470 -22 -195 -31 -709 -16 -910 31 -408 109 -777 233 -1110 396 -1058 1259
-1734 2543 -1989 306 -61 598 -94 986 -112 l254 -12 130 53 c1272 517 2257
1570 2678 2865 159 488 228 944 226 1485 -1 200 -11 364 -21 340z"/>
<path d="M3702 6360 c0 -14 2 -19 5 -12 2 6 2 18 0 25 -3 6 -5 1 -5 -13z"/>
</g>
</svg>
